<svg id="Layer_1" data-name="Layer 1" xmlns="http://www.w3.org/2000/svg" viewBox="0 0 375 358.6"><defs><style>.cls-1{fill:#1b2e84;}</style></defs><title>buy-lab-equipment-online-laboratory-supply-co</title><path class="cls-1" d="M245.81,358.58c14,0,28-.18,42-1.94,11.91-1.5,23.61-3.84,34.74-8.47,8.25-3.44,15.75-8,21.78-14.76A40.37,40.37,0,0,0,354.66,307c0.34-12.85.1-25.71,0.12-38.56a44,44,0,0,0-1.6-11.32,42.49,42.49,0,0,0-8.77-16.39c-5.29-6.42-11.81-11.42-18.32-16.42-17.41-13.36-35.66-25.53-53.89-37.72-9.49-6.34-18.52-13.21-25.64-22.29a28.87,28.87,0,0,1-5.94-12.69,109.66,109.66,0,0,1-1.12-12.16,95.65,95.65,0,0,1-.36-10.34c0.18-4.17,1.69-7.86,5.26-10.39,4.74-3.36,15.22-3.61,20-.43a6.59,6.59,0,0,1,3.2,5.8V174.5h79.53c0-17.3,0-34.44,0-51.58a28.66,28.66,0,0,0-1.16-7.42,37.47,37.47,0,0,0-13.78-20.16c-7.64-5.82-16.38-9.26-25.58-11.66a172.18,172.18,0,0,0-37.74-5c-20.51-.74-40.94-0.09-61.13,4-10.63,2.13-20.9,5.31-30.28,10.92-14.69,8.79-22.32,21.58-22.07,38.91q0.21,15,0,29.93c-0.12,8.43,2.76,15.73,7.78,22.32,4.41,5.79,10,10.4,15.77,14.66,12.29,9,24.71,17.86,37.14,26.68,10.47,7.42,21.17,14.53,31.53,22.11a60.62,60.62,0,0,1,16.6,17.52,22.17,22.17,0,0,1,3.52,12.14c-0.2,10.44-.09,20.9,0,31.34a7.54,7.54,0,0,1-3.71,6.66,14.61,14.61,0,0,1-8.18,2.31H88.68c-0.62,0-1.25-.07-2.09-0.12V81H0v277.6H245.81Z" transform="translate(0.01 0.02)"/><path class="cls-1" d="M258.06,305.29c0-8.57-.2-17.15.08-25.71,0.15-4.69-1.67-8.5-4.26-12a71.23,71.23,0,0,0-15.65-14.75c-9.17-6.62-18.61-12.87-27.94-19.27-0.37-.25-0.78-0.43-1.34-0.74v18.46H219c0,2.82-.09,5.4,0,8,0.08,1.53-.51,1.88-1.92,1.83-2.73-.1-5.47,0-8.18,0V282h19.17v9.73H202.29c-3.32,0-3.33,0-3.32-3.36V227.48a3.1,3.1,0,0,0-.86-2.22c-8.94-6.63-18-13.09-26.9-19.76-6.62-5-12.76-10.44-17.56-17.31a42.66,42.66,0,0,1-8.09-23.71c-0.28-12.54.16-25.09,0.26-37.64,0-5.54,1.69-10.77,3.55-15.84a45.84,45.84,0,0,1,13.22-18.52,70.3,70.3,0,0,1,12.08-8.41,94.13,94.13,0,0,1,23.76-8.88c3.94-1,7.9-1.8,12-2.72-0.2-.63-0.35-1.13-0.52-1.62-3.69-10.36-7.43-20.69-11-31.08a20.25,20.25,0,0,1-1.07-6.15c-0.13-6.81.12-13.62-.11-20.42a16.29,16.29,0,0,1,3.93-11.33c0.45-.55.85-1.16,1.37-1.89H152.38a1.22,1.22,0,0,0,0,.45c0.3,0.43.6,0.87,0.94,1.27a17.09,17.09,0,0,1,4.1,12c-0.23,7.15,0,14.32-.08,21.48a8.42,8.42,0,0,1-.45,2.75q-11.22,31.64-22.5,63.27-18,50.53-36.07,101.06c-0.93,2.63-2.1,5.39-2.11,8.09-0.15,31.7-.1,63.39-0.1,95.09v1.85H258.06v-2Z" transform="translate(0.01 0.02)"/><path class="cls-1" d="M357.12,354.29h-1.4V343h-3v-1.3h7.52V343h-3.07v11.26h0Z" transform="translate(0.01 0.02)"/><path class="cls-1" d="M363.26,341l4.58,10.57L372.43,341,375,354.29h-1.44l-1.62-8.52h0l-4.06,9-4-9h0l-1.73,8.52H360.7Z" transform="translate(0.01 0.02)"/></svg>